<?xml version="1.0" standalone="no"?>
<!DOCTYPE svg PUBLIC "-//W3C//DTD SVG 20010904//EN"
 "http://www.w3.org/TR/2001/REC-SVG-20010904/DTD/svg10.dtd">
<svg version="1.0" xmlns="http://www.w3.org/2000/svg"
 width="128.000000pt" height="128.000000pt" viewBox="0 0 128.000000 128.000000"
 preserveAspectRatio="xMidYMid meet">

<g transform="translate(0.000000,128.000000) scale(0.100000,-0.100000)"
fill="#000000" stroke="none">
<path d="M500 1264 c-107 -23 -222 -86 -305 -168 -40 -39 -77 -81 -83 -92 -11
-20 -8 -22 40 -28 126 -17 198 -81 198 -176 0 -49 -20 -90 -57 -120 l-27 -21
33 -26 c64 -50 87 -144 56 -220 -29 -70 -82 -105 -189 -127 l-61 -13 80 -79
c140 -138 304 -202 490 -191 153 9 278 62 400 169 52 47 132 154 122 165 -3 3
-19 -4 -35 -16 -77 -54 -186 -50 -217 9 -43 83 8 150 114 150 l39 0 7 68 c3
37 10 84 15 104 7 35 6 39 -25 58 -72 45 -43 89 36 56 13 -6 20 3 33 35 10 24
27 56 38 72 l22 30 -30 56 c-16 31 -63 90 -104 132 -154 156 -373 220 -590
173z m328 -297 c135 -36 198 -141 160 -268 -15 -52 -73 -117 -122 -140 -55
-25 -146 -25 -176 -1 -31 25 -21 36 43 51 80 17 117 66 117 152 0 60 -22 94
-75 115 -58 22 -142 14 -220 -21 -103 -45 -123 -29 -50 41 75 73 205 101 323
71z m-153 -137 c7 -22 1 -75 -25 -205 -10 -49 -21 -138 -25 -197 -8 -119 -15
-132 -75 -141 -60 -8 -70 4 -70 83 0 158 79 406 146 459 33 26 41 26 49 1z"/>
<path d="M47 883 c-3 -5 -5 -39 -5 -78 0 -38 -8 -103 -16 -143 -9 -40 -16 -91
-16 -112 0 -51 37 -170 56 -177 27 -10 87 9 116 37 24 25 28 36 28 85 0 31 -7
71 -15 88 -14 29 -19 32 -64 33 -72 1 -102 32 -65 68 10 10 33 16 64 16 57 0
70 15 70 80 0 54 -14 79 -55 96 -37 15 -91 19 -98 7z"/>
<path d="M1245 559 c-4 -61 -4 -113 -2 -116 10 -9 27 70 34 150 5 65 4 77 -9
77 -12 0 -17 -21 -23 -111z"/>
<path d="M1030 379 c0 -16 5 -20 27 -17 17 2 29 10 31 21 3 13 -3 17 -27 17
-25 0 -31 -4 -31 -21z"/>
</g>
</svg>
